<?xml version="1.0" encoding="UTF-8" standalone="no"?>
<svg width="300" height="80" viewBox="0 0 300 80" fill="none" xmlns="http://www.w3.org/2000/svg">
  <!-- Dente -->
  <path d="M30 60C37 60 41 45 40 35C39 30 38 25 37 20C34 10 30 2.5 25 -2.5C20 -7.5 15 -10 10 -12.5C5 -15 0 -5 0 5V40C0 50 10 60 20 60H30Z" fill="#00BCD4"/>
  <path d="M20 60C13 60 9 45 10 35C11 30 12 25 13 20C16 10 20 2.5 25 -2.5C30 -7.5 35 -10 40 -12.5C45 -15 50 -5 50 5V40C50 50 40 60 30 60H20Z" fill="#00BCD4" fill-opacity="0.7"/>
  
  <!-- Testo "Dental" -->
  <path d="M70 20H85C92.5 20 100 27.5 100 35C100 42.5 92.5 50 85 50H70V20Z" fill="#002855"/>
  
  <path d="M105 20H125V25H110V32.5H125V37.5H110V45H125V50H105V20Z" fill="#002855"/>
  
  <path d="M130 20H135L150 40L165 20H170V50H165V30L150 50H147.5L132.5 30V50H130V20Z" fill="#002855"/>
  
  <path d="M175 20H180V50H175V20Z" fill="#002855"/>
  
  <path d="M185 20H190L210 40V20H215V50H210L190 30V50H185V20Z" fill="#002855"/>
  
  <path d="M220 20H240V25H225V32.5H240V37.5H225V45H240V50H220V20Z" fill="#002855"/>
  
  <!-- Testo "CRM" -->
  <path d="M245 20H260C267.5 20 275 27.5 275 35C275 42.5 267.5 50 260 50H245V20Z" fill="#002855"/>
  
  <path d="M280 20H285L300 40L315 20H320V50H315V30L300 50H297.5L282.5 30V50H280V20Z" fill="#002855"/>
</svg>
