<svg width="35" height="35" viewBox="0 0 35 35" fill="none" xmlns="http://www.w3.org/2000/svg">
  <!-- Dente stilizzato con colori del tema -->
  <path d="M17.5 32C20.7614 32 23.5507 29.2396 23.0021 26.0332C22.7103 24.3436 22.2915 22.6816 21.7492 21.0656C20.5934 17.6538 18.8992 14.558 16.7635 11.9294C14.6277 9.30083 12.0922 7.283 9.30172 5.92689C8.05517 5.3281 6.76864 4.86612 5.45736 4.52411C2.76639 3.82432 0 6.53858 0 9.8V26.2C0 29.4614 2.73858 32 6 32H17.5Z" fill="#00BCD4"/>
  <g style="mix-blend-mode:multiply">
    <path d="M17.5 32C14.2386 32 11.4493 29.2396 11.9979 26.0332C12.2897 24.3436 12.7085 22.6816 13.2508 21.0656C14.4066 17.6538 16.1008 14.558 18.2365 11.9294C20.3723 9.30083 22.9078 7.283 25.6983 5.92689C26.9448 5.3281 28.2314 4.86612 29.5426 4.52411C32.2336 3.82432 35 6.53858 35 9.8V26.2C35 29.4614 32.2614 32 29 32H17.5Z" fill="#00BCD4" fill-opacity="0.7"/>
  </g>
  
  <!-- Dettagli del dente (linee stilizzate) -->
  <path d="M17.5 11C17.5 11 14 14 14 17.5C14 21 17.5 24 17.5 24C17.5 24 21 21 21 17.5C21 14 17.5 11 17.5 11Z" fill="white" fill-opacity="0.7"/>
  <path d="M17.5 11C17.5 11 14 14 14 17.5C14 21 17.5 24 17.5 24" stroke="white" stroke-width="1" stroke-opacity="0.5"/>
  <path d="M17.5 11C17.5 11 21 14 21 17.5C21 21 17.5 24 17.5 24" stroke="white" stroke-width="1" stroke-opacity="0.5"/>
</svg>
